# xmcd CD database file
#
# Track frame offsets:
#	150
#	9612
#	21665
#	30837
#	41755
#	54677
#	63967
#	74985
#	86782
#	93472
#	104770
#	113572
#	124545
#	134842
#	144602
#	152247
#	160517
#	168527
#
# Disc length: 2401 seconds
#
# Revision: 4
# Processed by: cddbd v1.5.1PL0 Copyright (c) Steve Scherf et al.
# Submitted via: CDex 1.51
#
DISCID=07095f12
DTITLE=Johnny Cash - Roads Less Travelled
DYEAR=2001
DGENRE=Country
TTITLE0=New Mexico (Hills Of Mexico)
TTITLE1=Good Night Irene [Undubbed Master]
TTITLE2=I Couldn't Keep From Crying
TTITLE3=Belshazar [Undubbed Master]
TTITLE4=Don't Make Me Go [Alternate Take]
TTITLE5=Blue Train
TTITLE6=The Ways Of A Woman In Love [Alternate Take]
TTITLE7=Doin' My Time [Alternate Take]
TTITLE8=Leave That Junk Alone
TTITLE9=My Treasure [Undubbed Master]
TTITLE10=My Two Timin' Woman
TTITLE11=I Love You Because [Undubbed Master]
TTITLE12=I Was There When It Happened [Alternate Take]
TTITLE13=Born To Lose [Undubbed Master]
TTITLE14=If The Good Lord's Willing
TTITLE15=Always Alone [Undubbed Master]
TTITLE16=Wreck Of The Old 97
TTITLE17=Wide Open Road [Slow Version]
EXTD=YEAR: 2001
EXTT0=
EXTT1=
EXTT2=
EXTT3=
EXTT4=
EXTT5=
EXTT6=
EXTT7=
EXTT8=
EXTT9=
EXTT10=
EXTT11=
EXTT12=
EXTT13=
EXTT14=
EXTT15=
EXTT16=
EXTT17=
PLAYORDER=
